<svg version="1.1" id="Layer_1" xmlns="http://www.w3.org/2000/svg" xmlns:xlink="http://www.w3.org/1999/xlink" x="0px" y="0px"
	 width="100%" viewBox="0 0 1024 672" enable-background="new 0 0 1024 672" xml:space="preserve">
<path fill="#000000" opacity="1.000000" stroke="none" 
	d="
M99.571533,1.000000 
	C100.136383,80.819458 100.233818,160.639023 100.438942,240.458298 
	C100.485176,258.448914 100.890877,276.438812 101.164307,294.428528 
	C101.262215,300.870331 103.911041,303.705597 110.301254,304.631653 
	C125.553078,306.841888 140.896454,305.804413 156.157303,305.398407 
	C180.983353,304.737976 205.804062,304.925720 230.625687,304.766693 
	C263.285858,304.557404 295.953918,305.022888 328.607819,304.511566 
	C375.927795,303.770569 423.245758,304.253540 470.563751,304.014526 
	C472.520172,304.004669 474.476624,304.013245 476.334686,304.013245 
	C476.843414,301.608429 475.482697,300.648895 474.568604,299.565735 
	C462.322662,285.055054 449.686707,270.857391 437.841125,256.028046 
	C408.186462,218.903610 373.325928,187.017914 338.037537,155.515305 
	C311.676819,131.982590 286.505249,107.202393 261.578033,82.168037 
	C256.528778,77.097038 251.095978,72.407509 245.831070,67.551796 
	C244.259964,66.102783 242.963242,65.279327 240.736893,67.125542 
	C231.646469,74.663918 218.552841,71.008614 213.434769,59.883434 
	C208.211945,48.530483 214.657623,34.245815 229.956360,33.953636 
	C242.421936,33.715569 251.052002,46.230194 246.361954,57.923374 
	C245.418762,60.274956 245.188553,61.813511 247.197998,63.592140 
	C264.280396,78.712410 279.790619,95.444771 296.085907,111.373154 
	C318.473389,133.256577 342.445526,153.384811 365.863281,174.125717 
	C369.227051,177.105011 371.997559,180.923386 377.325897,183.235306 
	C376.071991,179.591690 374.171783,177.718887 372.554718,175.720993 
	C354.736847,153.707062 336.802673,131.786819 319.067108,109.706970 
	C310.409973,98.929306 302.047638,87.912552 293.669678,76.914268 
	C290.919128,73.303436 287.970856,71.146736 283.183350,72.903313 
	C278.774261,74.521042 275.609985,72.666862 272.903442,69.038223 
	C269.825928,64.912186 266.393036,61.156349 264.766144,56.031857 
	C261.888306,46.967045 267.263184,36.852837 276.683289,35.394001 
	C283.985352,34.263168 290.114258,37.197826 294.213898,43.460590 
	C297.936676,49.147625 299.891266,55.058773 295.603241,61.559059 
	C292.251892,66.639481 292.937286,73.847229 297.524719,78.027069 
	C305.699432,85.475471 312.468872,94.079575 318.857117,102.984978 
	C329.951843,118.451416 343.348114,131.993637 355.082397,146.925598 
	C374.228088,171.288620 394.233521,194.952927 414.191010,218.650467 
	C426.546478,233.321320 440.564880,246.422684 453.988708,260.078552 
	C467.290710,273.610504 480.873779,286.865936 494.212219,300.362579 
	C496.759979,302.940521 499.429688,304.096039 503.048187,303.962311 
	C508.704803,303.753143 514.376587,303.978271 520.041870,303.966125 
	C522.479675,303.960907 524.961060,304.396027 526.350891,301.285522 
	C527.161926,299.470367 528.882751,300.074127 529.923950,301.534363 
	C530.708069,302.634155 531.331299,303.939941 532.890869,303.887939 
	C542.146423,303.579285 551.435303,304.955597 560.664307,303.334808 
	C566.050964,302.388794 568.082703,298.940430 568.117188,293.751648 
	C568.259888,272.283936 568.553772,250.817001 568.641846,229.349167 
	C568.738281,205.853287 568.764282,182.356018 568.588440,158.861099 
	C568.554871,154.376953 569.765991,152.394882 574.492615,152.849350 
	C579.005493,153.283264 583.659546,152.095657 588.459717,153.580276 
	C587.092896,157.679565 583.897461,159.084183 580.985535,160.270950 
	C577.523621,161.681854 576.071777,163.792374 576.064331,167.424500 
	C576.034058,182.249100 575.887512,197.073441 575.795349,211.897964 
	C575.624390,239.387054 575.522705,266.876801 575.244141,294.364807 
	C575.187683,299.931213 572.401672,304.514099 567.473938,306.940796 
	C561.870361,309.700348 556.135986,312.451721 549.537476,312.302307 
	C541.881592,312.128876 534.203430,311.822601 526.591064,313.067474 
	C524.790588,313.361908 522.708557,313.331940 521.276367,314.256866 
	C511.280914,320.711700 500.191040,317.863007 490.073822,316.465363 
	C480.636688,315.161621 471.342987,313.858856 461.862366,314.254822 
	C453.716675,314.595032 445.574554,315.993439 437.456360,315.807953 
	C422.654236,315.469788 407.874786,314.365509 393.128448,312.789490 
	C364.254333,309.703552 335.274109,309.792450 306.297852,310.689178 
	C274.516266,311.672699 243.034698,317.518555 211.153824,316.834747 
	C193.009918,316.445557 174.900635,315.223267 156.823227,313.554413 
	C152.685669,313.172424 148.489288,312.948700 144.348465,313.174530 
	C133.660324,313.757507 123.060822,312.396942 112.426910,311.944489 
	C101.374329,311.474213 94.750046,304.543457 94.641174,294.325897 
	C93.613251,197.858444 93.543579,101.387993 93.737526,4.916736 
	C93.739532,3.919297 93.796722,2.921968 93.914078,1.462294 
	C95.714355,1.000000 97.428719,1.000000 99.571533,1.000000 
M479.378052,293.390198 
	C478.406494,292.698975 477.628296,291.474121 475.510590,292.264130 
	C478.970367,296.034332 481.079468,300.589203 486.798340,303.571533 
	C485.570099,298.191437 482.030640,296.542450 479.378052,293.390198 
z"/>
<path fill="#000000" opacity="1.000000" stroke="none" 
	d="
M537.533142,1.000000 
	C536.776306,5.592707 537.422913,10.276721 537.402100,14.915548 
	C537.315491,34.176109 537.367737,53.437237 537.319885,72.698029 
	C537.198975,121.324532 537.298706,169.953583 536.786804,218.576096 
	C536.595764,236.720276 536.418030,254.866989 536.372986,273.011871 
	C536.362854,277.110596 534.596069,280.435852 532.956116,283.796692 
	C531.383667,287.019348 525.039917,286.258057 523.519348,282.620758 
	C521.942932,278.849884 520.593506,275.072052 520.620544,270.682739 
	C521.171753,181.101395 521.550964,91.518997 521.982239,1.468401 
	C527.022095,1.000000 532.044189,1.000000 537.533142,1.000000 
z"/>
<path fill="#000000" opacity="1.000000" stroke="none" 
	d="
M575.562500,0.999998 
	C576.106506,2.154907 576.307495,3.309947 576.305908,4.464709 
	C576.252502,43.394516 576.183350,82.324303 576.095032,121.254044 
	C576.092041,122.575233 575.985291,123.919861 575.721191,125.211479 
	C575.276672,127.384644 573.543701,127.389870 571.809692,127.304710 
	C570.121216,127.221794 568.888000,126.602287 568.798767,124.710312 
	C568.720520,123.049896 568.677246,121.385971 568.681885,119.723778 
	C568.792175,80.461502 568.911133,41.199265 569.014282,1.468508 
	C571.041687,1.000000 573.083313,1.000000 575.562500,0.999998 
z"/>
</svg>